<svg id="Layer_1" data-name="Layer 1" xmlns="http://www.w3.org/2000/svg" viewBox="0 0 175.09 176.57"><defs><style>.cls-1{fill:#fff;}</style></defs><g id="square"><g id="Group_1" data-name="Group 1"><path id="Path_1" data-name="Path 1" class="cls-1" d="M685.82,418.51h-166a4.56,4.56,0,0,0-4.56,4.56V590.51a4.56,4.56,0,0,0,4.56,4.56H575v0c2.49,0,4.4-1.42,4.49-3.78.22-6.13.06-12.28.06-18.2-4.44.21-8.68.77-12.88.53-9.25-.54-16.36-4.48-20-13.54-2.19-5.37-5.48-10-10.6-13a11,11,0,0,1-2.53-2.27c-1-1.12-.78-2.27.74-2.57a12.6,12.6,0,0,1,4.7-.25c5.9,1.11,10,4.81,13.12,9.74,6.18,9.75,15.7,12.74,26.41,8.24a2.66,2.66,0,0,0,1.47-1.42,22.94,22.94,0,0,1,5.73-11.7c-3.62-.67-7-1.16-10.25-1.92-9.45-2.19-18-6.12-24.16-13.94-5.06-6.38-7.38-13.84-8.45-21.79-1.66-12.44-.17-24.09,8.37-34a2.69,2.69,0,0,0,.48-2.16,34.71,34.71,0,0,1,.3-20.84c1.11-3.63,1.42-3.82,5.13-3.31.23,0,.45.09.67.13,7.43,1.22,13.83,4.82,20.12,8.68a4.53,4.53,0,0,0,3.07.61,94.25,94.25,0,0,1,45.1,0,4.55,4.55,0,0,0,2.87-.53c3.43-1.79,6.7-3.87,10.17-5.57,4-2,8.29-3.46,12.86-3.37a3.05,3.05,0,0,1,2.31,1.48,34.59,34.59,0,0,1,1.14,22.32,4.11,4.11,0,0,0,.55,2.76c2.16,4,5.19,7.64,6.56,11.85,4.17,12.85,2.65,25.56-3,37.63-5.21,11.07-14.87,16.67-26.3,19.57-3.87,1-7.82,1.57-12,2.38,5.46,5.7,6.32,12.67,6.22,20-.1,7.52-.07,15-.08,22.56,0,3.64,1.59,5.66,4.37,5.77h58.66v-172a4.56,4.56,0,0,0-4.56-4.56Z" transform="translate(-515.29 -418.51)"/></g></g></svg>