<svg id="Layer_1" data-name="Layer 1" xmlns="http://www.w3.org/2000/svg" viewBox="0 0 88.06 84.39"><defs><style>.cls-1{fill:#fff;}</style></defs><path id="social-media" class="cls-1" d="M655,406.91c-24.33,0-44,19.38-44,43.27a43.34,43.34,0,0,0,30.11,41.05c2.2.41,3-.93,3-2.08s0-3.75-.06-7.35c-12.25,2.61-14.83-5.8-14.83-5.8-2-5-4.9-6.33-4.9-6.33-4-2.68.31-2.63.31-2.63,4.42.3,6.74,4.46,6.74,4.46,3.93,6.61,10.31,4.7,12.83,3.6a9.14,9.14,0,0,1,2.79-5.79c-9.78-1.09-20.05-4.8-20.05-21.38a16.55,16.55,0,0,1,4.52-11.62c-.5-1.09-2-5.49.39-11.45,0,0,3.69-1.16,12.11,4.44a42.14,42.14,0,0,1,22,0c8.37-5.6,12.06-4.44,12.06-4.44,2.36,6,.88,10.36.44,11.45A16.62,16.62,0,0,1,683,447.92c0,16.63-10.29,20.28-20.09,21.35,1.54,1.3,3,4,3,8,0,5.79-.05,10.45-.05,11.85,0,1.14.77,2.49,3,2.06a43.21,43.21,0,0,0,30.22-41C699,426.29,679.31,406.91,655,406.91Z" transform="translate(-610.96 -406.91)"/></svg>